<?xml version="1.0" encoding="iso-8859-1"?>
<!-- Generator: Adobe Illustrator 19.0.0, SVG Export Plug-In . SVG Version: 6.00 Build 0)  -->
<svg version="1.1" id="Layer_1" xmlns="http://www.w3.org/2000/svg" xmlns:xlink="http://www.w3.org/1999/xlink" x="0px" y="0px"
	 viewBox="0 0 512.005 512.005" style="enable-background:new 0 0 512.005 512.005;" xml:space="preserve">
<rect x="57.972" y="170.146" style="fill:#120037;" width="396.062" height="255.956"/>
<rect x="107.111" y="170.094" style="fill: #72720e;" width="297.34" height="255.997"/>
<g>
	<rect x="54.409" y="175.436" style="fill:#120037;" width="8" height="247.397"/>
	<rect x="103.553" y="175.447" style="fill:#120037;" width="8" height="247.397"/>
	<rect x="449.589" y="175.436" style="fill:#120037;" width="8" height="247.397"/>
	<rect x="400.45" y="175.447" style="fill:#120037;" width="8" height="247.397"/>
</g>
<polyline style="fill:#120037;" points="60.129,84.624 256.097,0 452.057,84.624 "/>
<g>
	<rect x="23.889" y="420.925" style="fill:#120037;" width="464.227" height="91.08"/>
	<rect x="23.889" y="84.624" style="fill:#120037;" width="464.227" height="91.08"/>
</g>
<rect x="202.831" y="113.798" style="fill:#120037;" width="106.332" height="32.736"/>
<g style="opacity:0.3;">
	<rect x="400.439" y="175.704" style="fill:#120037;" width="57.142" height="28.472"/>
</g>
<g style="opacity:0.3;">
	
		<rect x="54.445" y="175.591" transform="matrix(1 0.002 -0.002 1 0.3798 -0.1657)" style="fill:#120037;" width="57.204" height="28.472"/>
</g>
<path style="fill:#120037;" d="M250.505,392.32v-22.464c-13.166-0.152-26.076-3.657-37.512-10.184l6.256-21.768
	c10.951,6.481,23.404,9.992,36.128,10.184c14.584,0,24.544-7.2,24.544-18.296c0-10.4-8.112-17.136-25.24-23.392
	c-24.32-8.8-40.064-19.912-40.064-41.448c0-19.92,13.888-35.2,37.28-39.368v-22.688h18.984v21.536
	c11.089,0.124,22.009,2.737,31.952,7.648l-6.248,21.304c-9.722-5.096-20.52-7.795-31.496-7.872c-16.208,0-22,8.336-22,16.208
	c0,9.496,8.336,14.824,28.001,22.688c25.936,9.72,37.512,22.232,37.512,42.84c0,19.688-13.664,37.056-39.136,41.216v23.856H250.505z
	"/>
<g>
</g>
<g>
</g>
<g>
</g>
<g>
</g>
<g>
</g>
<g>
</g>
<g>
</g>
<g>
</g>
<g>
</g>
<g>
</g>
<g>
</g>
<g>
</g>
<g>
</g>
<g>
</g>
<g>
</g>
</svg>
