<?xml version="1.0" encoding="iso-8859-1"?>
<!-- Generator: Adobe Illustrator 19.0.0, SVG Export Plug-In . SVG Version: 6.00 Build 0)  -->
<svg version="1.1" id="Capa_1" xmlns="http://www.w3.org/2000/svg" xmlns:xlink="http://www.w3.org/1999/xlink" x="0px" y="0px"
	 viewBox="0 0 489.9 489.9" style="enable-background:new 0 0 489.9 489.9;" xml:space="preserve">
<g>
	<g>
		<g>
			<path d="M457.7,352.05v-241c0-19-15.4-34.4-34.4-34.4H66.6c-19,0-34.4,15.4-34.4,34.4v241h-1.6H0v23.3c0,21,17,37.9,37.9,37.9
				h36.3h341.5H452c21,0,37.9-17,37.9-37.9v-23.3h-30.6H457.7z M410.9,352.05h-120v2.3c0,7.2-5.8,13-13,13H212c-7.2,0-13-5.8-13-13
				v-2.3H79.1v-228.4h331.8V352.05z M137.7,280.05c0.9-3.2,1.8-6.4,2.7-9.6c1.4-3.7,2.3-4.1,5.5-2.3c6,3.2,12.4,4.6,18.8,5.5
				c4.1,0.5,8.2,0,12.4-1.8c7.3-3.2,8.7-11.4,2.3-16.5c-2.3-1.8-4.6-3.2-6.9-4.1c-6.4-2.7-13.3-5-19.2-8.7
				c-10.1-6-16-13.7-15.6-25.6c0.9-13.3,8.7-22,21.1-26.6c5-1.8,5-1.8,5-6.9c0-1.8,0-3.7,0-5.5c0-4.1,0.9-4.6,4.6-5
				c1.4,0,2.3,0,3.7,0c8.7,0,8.7,0,8.7,8.7c0,6,0,6,6,6.9c4.6,0.9,9.2,2.3,13.3,4.1c2.3,0.9,3.2,2.7,2.7,5c-0.9,3.7-2.3,7.3-3.2,11
				s-2.3,4.1-5.5,2.3c-6.9-3.2-13.7-4.6-21.1-4.1c-1.8,0-3.7,0.5-5.5,0.9c-6.4,2.7-7.3,9.6-1.8,14.2c2.7,2.3,5.9,3.7,9.2,5
				c5.5,2.3,11.4,4.6,16.9,7.3c16.5,9.6,21.1,31.1,9.2,45.8c-4.6,5-10.1,8.7-16.5,10.5c-2.7,0.9-4.1,2.3-4.1,5s0,6,0,8.7
				s-1.4,4.1-4.1,4.1c-3.2,0-6.4,0-9.6,0c-2.7,0-4.1-1.8-4.1-4.1c0-2.3,0-4.1,0-6.4c0-4.6,0-5-4.6-5.5c-6-0.9-11.4-2.3-16.9-5
				C136.8,285.55,136.3,284.15,137.7,280.05z M240.4,291.25v-13.2c0-2.1,1.7-3.8,3.8-3.8h105c2.1,0,3.8,1.7,3.8,3.8v13.3
				c0,2.1-1.7,3.8-3.8,3.8h-105C242.1,295.05,240.4,293.35,240.4,291.25z M240.4,247.35v-13.3c0-2.1,1.7-3.8,3.8-3.8h105
				c2.1,0,3.8,1.7,3.8,3.8v13.3c0,2.1-1.7,3.8-3.8,3.8h-105C242.1,251.05,240.4,249.35,240.4,247.35z M240.4,203.35v-13.3
				c0-2.1,1.7-3.8,3.8-3.8h105c2.1,0,3.8,1.7,3.8,3.8v13.3c0,2.1-1.7,3.8-3.8,3.8h-105C242.1,207.05,240.4,205.45,240.4,203.35z"/>
		</g>
	</g>
</g>
<g>
</g>
<g>
</g>
<g>
</g>
<g>
</g>
<g>
</g>
<g>
</g>
<g>
</g>
<g>
</g>
<g>
</g>
<g>
</g>
<g>
</g>
<g>
</g>
<g>
</g>
<g>
</g>
<g>
</g>
</svg>
